<svg id="SvgjsSvg1016" width="288" height="288" xmlns="http://www.w3.org/2000/svg" version="1.1" xmlns:xlink="http://www.w3.org/1999/xlink" xmlns:svgjs="http://svgjs.com/svgjs"><defs id="SvgjsDefs1017"></defs><g id="SvgjsG1018"><svg xmlns="http://www.w3.org/2000/svg" viewBox="0 0 64 64" width="288" height="288"><path fill="#a8bfc9" fill-rule="evenodd" d="M15.002 1.147 32 18.145 48.998 1.147a3 3 0 0 1 4.243 0l9.612 9.612a3 3 0 0 1 0 4.243L45.855 32l16.998 16.998a3 3 0 0 1 0 4.243l-9.612 9.612a3 3 0 0 1-4.243 0L32 45.855 15.002 62.853a3 3 0 0 1-4.243 0L1.147 53.24a3 3 0 0 1 0-4.243L18.145 32 1.147 15.002a3 3 0 0 1 0-4.243l9.612-9.612a3 3 0 0 1 4.243 0Z" class="color31C3BD svgShape"></path></svg></g></svg>